<?xml version="1.0" standalone="no"?>
<!DOCTYPE svg PUBLIC "-//W3C//DTD SVG 20010904//EN"
 "http://www.w3.org/TR/2001/REC-SVG-20010904/DTD/svg10.dtd">
<svg version="1.0" xmlns="http://www.w3.org/2000/svg"
 width="1080.000000pt" height="1080.000000pt" viewBox="0 0 1080.000000 1080.000000"
 preserveAspectRatio="xMidYMid meet">
<metadata>
Created by potrace 1.16, written by Peter Selinger 2001-2019
</metadata>
<g transform="translate(0.000000,1080.000000) scale(0.100000,-0.100000)"
fill="#000000" stroke="none">
<path d="M4700 10784 c-786 -107 -1480 -348 -2125 -737 -916 -553 -1658 -1379
-2108 -2344 -80 -171 -84 -183 -61 -183 23 0 84 -47 84 -65 0 -8 -11 -31 -25
-51 -14 -20 -25 -43 -25 -51 0 -19 18 -53 43 -80 27 -30 16 -53 -27 -53 -41 0
-70 32 -87 94 -18 69 -20 76 -29 76 -10 0 -35 -63 -101 -258 -91 -267 -159
-539 -210 -839 -27 -164 -29 -191 -29 -455 l0 -281 21 27 c28 36 52 33 87 -11
l30 -37 35 27 c20 15 46 27 59 27 27 0 118 -55 118 -71 0 -6 -13 -27 -30 -46
-43 -49 -40 -84 10 -124 22 -18 40 -38 40 -46 0 -7 -15 -21 -34 -30 -67 -32
-122 7 -149 107 -11 38 -22 60 -31 60 -23 0 -30 -20 -32 -82 -2 -75 -22 -105
-79 -119 l-45 -11 0 -269 c0 -250 2 -279 29 -442 194 -1149 736 -2188 1563
-2992 879 -856 1994 -1380 3218 -1510 188 -20 932 -20 1120 0 1224 130 2339
654 3218 1510 826 803 1371 1847 1562 2989 56 339 65 455 65 891 0 436 -9 552
-65 891 -289 1726 -1387 3204 -2955 3974 -504 247 -987 398 -1590 497 -159 26
-165 27 -760 29 -476 2 -622 0 -705 -12z m-4035 -3254 c17 -16 48 -36 70 -43
59 -20 85 -64 85 -141 0 -34 -5 -67 -12 -74 -20 -20 -46 4 -53 50 -9 53 -22
78 -39 78 -24 0 -41 -31 -46 -84 -5 -47 -7 -51 -32 -54 -31 -4 -29 -7 -48 125
-10 78 -7 118 12 156 12 24 28 21 63 -13z m3685 -110 c136 -22 285 -121 344
-229 37 -69 10 -70 -34 -2 -140 220 -472 276 -773 132 -79 -38 -192 -116 -231
-160 -11 -11 -28 -21 -40 -21 -17 0 -13 7 24 46 105 108 255 193 386 218 43 8
88 17 99 19 39 9 161 7 225 -3z m2657 -20 c78 -10 173 -51 210 -91 25 -28 73
-126 73 -151 0 -10 -5 -18 -10 -18 -7 0 -7 -6 -1 -17 5 -10 14 -46 21 -79 39
-199 -106 -441 -312 -521 -24 -9 -47 -19 -52 -24 -4 -4 8 -34 27 -66 20 -32
55 -105 78 -163 73 -185 149 -384 149 -392 0 -4 -81 -8 -179 -8 l-179 0 -32
78 c-18 42 -41 100 -51 127 -42 119 -100 257 -122 292 -48 75 -55 78 -190 78
l-121 0 -38 -150 c-20 -82 -37 -164 -37 -182 -1 -30 2 -32 37 -35 l37 -3 3
-68 3 -68 -43 3 c-38 3 -43 6 -44 28 -2 56 -4 66 -13 50 -5 -8 -12 -33 -16
-55 -4 -21 -13 -52 -21 -67 l-15 -28 -310 0 -310 0 -10 30 c-6 17 -15 30 -21
30 -23 0 -46 -22 -51 -50 -8 -35 -19 -38 -47 -10 -49 49 3 140 81 140 21 0 22
2 16 88 -4 48 -10 104 -13 125 l-7 37 -226 -2 -225 -3 -119 -192 -119 -193
-112 0 c-65 0 -116 4 -123 11 -7 7 -23 -10 -52 -56 -38 -62 -44 -67 -69 -61
-45 11 -171 79 -214 115 l-40 34 -66 -22 c-101 -34 -252 -48 -363 -34 -222 29
-400 187 -439 392 -31 164 7 393 93 566 175 352 513 548 875 508 219 -24 376
-152 434 -351 29 -98 28 -259 -2 -377 -46 -184 -115 -322 -222 -447 -66 -76
-66 -71 6 -109 21 -11 42 -17 46 -12 5 4 82 125 173 268 90 143 228 361 307
485 78 124 186 294 238 378 l97 152 137 0 c84 0 139 -4 143 -10 7 -11 24 -114
125 -755 58 -373 66 -405 90 -405 10 0 25 -2 32 -5 9 -4 18 6 26 27 6 18 70
269 142 558 72 289 136 540 141 558 l11 32 369 0 c466 0 536 -11 628 -102 32
-31 33 -32 27 -8 -15 51 -63 105 -119 134 -76 39 -145 45 -539 46 -294 0 -338
-2 -338 -15 0 -8 -9 -15 -20 -15 -13 0 -18 5 -15 15 3 8 7 22 10 30 4 13 52
15 357 15 194 0 385 -5 425 -10z m850 -4 c-3 -8 -9 -31 -13 -50 -5 -29 -3 -36
10 -36 9 0 16 -3 16 -6 0 -10 -236 -965 -298 -1209 l-57 -220 -145 -3 c-79 -1
-149 -1 -156 2 -8 3 -4 37 16 123 23 95 283 1130 321 1276 l10 37 119 0 c65 0
121 3 123 8 2 4 7 19 11 35 l6 27 -130 0 c-109 0 -130 2 -130 15 0 13 23 15
151 15 127 0 150 -2 146 -14z m1112 -1053 c12 -10 24 -35 27 -55 5 -31 2 -41
-21 -64 -26 -26 -28 -27 -118 -20 -68 5 -95 11 -104 23 -29 38 -4 93 42 93 12
0 42 9 66 20 54 24 81 25 108 3z m-8677 -217 c32 -7 29 -28 -7 -44 -13 -6 -29
-21 -35 -33 -7 -12 -8 -19 -3 -16 4 3 9 -6 9 -19 2 -20 -2 -23 -21 -18 -14 3
-29 -1 -39 -12 -16 -15 -19 -15 -33 -1 -22 22 -30 121 -12 133 15 9 88 22 104
18 6 -1 22 -5 37 -8z m2003 -366 c10 -11 35 -25 55 -30 20 -5 47 -21 59 -34
29 -31 39 -103 18 -131 -19 -25 -25 -19 -33 31 -6 45 -33 78 -56 69 -21 -8
-38 -49 -38 -90 0 -35 -15 -54 -31 -38 -12 12 -24 183 -15 217 8 31 17 33 41
6z m350 -54 c32 -32 24 -51 -32 -76 -42 -18 -45 -22 -41 -50 3 -17 1 -33 -4
-36 -20 -12 -57 8 -78 41 -27 44 -22 71 22 114 41 40 97 43 133 7z m-2144 -96
c24 -24 49 -40 63 -40 29 0 72 -33 91 -70 37 -71 5 -202 -42 -174 -21 13 -40
47 -48 87 -6 29 -29 36 -39 11 -3 -9 -6 -31 -6 -50 0 -21 -8 -42 -20 -54 -23
-23 -33 -24 -61 -10 -15 9 -19 22 -19 65 0 30 -7 75 -16 100 -14 42 -14 51 1
100 12 44 33 73 53 75 2 0 21 -18 43 -40z m6565 -422 c5 -7 7 -40 6 -73 -2
-35 3 -76 11 -95 17 -40 12 -67 -15 -76 -12 -4 -17 -11 -14 -21 14 -34 36
-189 36 -245 l0 -60 38 7 c20 3 45 14 55 24 12 11 41 109 84 279 l66 262 691
-2 691 -3 17 -155 c16 -143 37 -334 74 -685 8 -76 16 -141 18 -142 4 -5 4 -4
206 322 94 154 226 367 292 473 l120 192 114 0 c63 0 114 -2 114 -4 0 -2 3
-11 6 -20 5 -14 -8 -16 -102 -16 l-109 -1 -313 -507 c-172 -279 -323 -523
-334 -542 l-22 -35 -7 45 c-5 25 -15 110 -23 190 -35 331 -68 642 -79 740
l-12 105 -117 3 c-137 3 -127 17 -103 -137 8 -53 26 -179 39 -281 14 -102 48
-348 76 -547 27 -200 50 -370 50 -378 0 -12 18 -15 108 -15 l107 0 46 73 c26
39 161 250 300 467 138 217 275 431 304 475 28 44 85 133 126 197 72 114 91
133 102 104 3 -8 -80 -147 -186 -312 -105 -165 -297 -465 -427 -669 -236 -369
-237 -370 -274 -373 -20 -2 -36 -7 -36 -13 0 -5 -48 -9 -109 -9 -125 0 -129 3
-117 85 5 28 -6 127 -29 286 -20 134 -42 298 -50 364 -15 123 -38 254 -56 315
-5 19 -11 87 -13 150 -2 63 -8 126 -13 140 -9 21 -13 12 -34 -73 l-23 -97
-387 0 -386 0 -6 -27 c-13 -59 -47 -225 -47 -229 0 -2 25 -4 57 -4 54 0 55 1
39 19 -22 24 -12 31 88 59 l78 23 50 -26 c47 -24 51 -25 74 -10 13 8 24 20 24
25 0 6 11 15 24 21 30 14 121 -14 136 -41 17 -32 12 -58 -12 -63 -13 -2 11 -5
52 -6 41 -1 81 -5 87 -9 10 -6 4 -40 -21 -142 l-34 -135 -363 -5 -364 -5 -11
-50 c-6 -27 -14 -69 -18 -93 -6 -42 -6 -43 15 -31 12 6 38 9 58 5 33 -5 39 -2
71 36 28 32 40 39 57 34 28 -9 36 -36 23 -70 -5 -15 -10 -45 -10 -67 0 -44 -8
-48 -36 -18 -29 32 -51 41 -74 29 -17 -9 -50 -58 -50 -75 0 -3 155 -5 344 -5
190 0 347 -4 350 -8 8 -14 -62 -263 -80 -283 -16 -18 -36 -19 -555 -19 -336 0
-540 4 -544 10 -3 5 5 51 19 102 33 122 41 189 27 217 -12 22 3 66 49 136 20
32 67 195 72 255 2 27 -1 35 -15 38 -39 8 -64 -25 -112 -150 -27 -68 -58 -144
-71 -169 -17 -33 -22 -57 -18 -81 4 -24 0 -47 -15 -76 -23 -46 -35 -51 -62
-26 -16 15 -21 12 -71 -39 -33 -34 -79 -67 -120 -88 -38 -18 -68 -36 -68 -41
0 -25 -145 -64 -291 -78 -63 -6 -231 -10 -374 -8 l-260 3 -3 25 c-1 14 11 77
27 140 17 63 94 369 172 679 77 310 145 575 150 588 l9 25 353 -4 c348 -4 353
-5 423 -30 92 -34 141 -65 187 -122 21 -25 43 -44 47 -41 23 14 22 77 0 126
-19 40 -21 51 -10 64 15 18 36 20 46 3z m-4127 -10 c0 -7 -15 -71 -33 -143
l-33 -130 -216 -3 -216 -2 -10 -38 c-6 -20 -29 -113 -51 -207 -22 -93 -50
-206 -61 -250 -109 -427 -145 -581 -137 -586 5 -3 5 -23 0 -45 l-8 -39 -152
-3 c-99 -2 -152 1 -152 8 0 5 -7 10 -15 10 -8 0 -15 4 -15 9 0 5 63 259 140
565 77 306 140 560 140 566 0 6 -72 10 -204 10 -119 0 -207 4 -211 9 -4 8 42
217 60 269 3 9 130 12 590 12 462 0 585 -3 584 -12z m353 7 c3 -3 -23 -119
-58 -258 -35 -139 -64 -255 -64 -259 0 -5 119 -8 265 -8 l264 0 12 43 c6 23
37 141 68 262 l56 220 145 3 c79 1 149 1 156 -2 8 -3 -28 -166 -123 -548 -74
-299 -148 -592 -164 -653 -16 -60 -31 -132 -34 -158 -12 -101 -5 -97 -165 -97
-181 0 -177 -3 -153 120 19 100 14 120 -28 130 -17 4 -25 14 -27 34 -3 26 -1
28 23 24 19 -4 28 0 37 16 6 11 23 35 39 51 22 23 36 58 58 143 l29 112 -268
0 -268 0 -36 -152 c-20 -84 -41 -170 -46 -190 -6 -20 -19 -86 -30 -145 -11
-59 -23 -116 -26 -125 -5 -16 -20 -18 -147 -18 -108 1 -147 4 -161 15 -18 14
-13 37 154 707 95 381 177 703 181 716 8 21 12 22 157 22 82 0 151 -2 154 -5z
m2084 -17 c-3 -13 -13 -57 -22 -98 -9 -41 -22 -95 -28 -120 l-12 -45 -387 -3
-387 -2 -5 -23 c-31 -138 -44 -208 -39 -220 9 -23 61 -27 387 -27 209 0 307
-3 307 -11 0 -21 -62 -254 -69 -262 -5 -4 -136 -8 -292 -7 -156 0 -316 -3
-356 -6 l-72 -7 -21 -96 c-12 -53 -27 -120 -34 -148 l-13 -53 393 0 c324 0
394 -2 394 -14 0 -12 -39 -177 -60 -257 -10 -38 -33 -49 -100 -49 -34 0 -59
-27 -67 -74 -7 -45 -21 -55 -43 -29 -16 20 -17 19 -63 -23 -61 -55 -112 -67
-139 -34 -24 30 -23 91 2 121 l19 24 1 -47 c0 -50 24 -88 55 -88 35 0 47 83
17 120 -27 33 -183 55 -221 31 -23 -15 -15 -104 14 -162 17 -31 16 -33 -1 -46
-10 -8 -28 -12 -39 -11 -16 2 -19 9 -17 33 15 170 15 168 -4 182 -14 10 -75
13 -264 13 -297 0 -281 -9 -244 131 13 52 25 118 25 147 0 29 4 50 8 48 4 -3
13 18 20 47 7 29 21 79 32 112 10 33 46 170 78 305 56 232 157 631 166 658 3
9 122 12 546 12 l541 0 -6 -22z m-419 -865 c3 -7 -11 -19 -30 -27 -34 -14 -57
-53 -57 -97 0 -27 -25 -23 -45 7 l-17 26 -17 -28 c-10 -16 -25 -35 -33 -42
-14 -12 -16 -7 -15 40 1 29 -2 61 -7 71 -12 26 11 21 40 -8 31 -32 40 -31 48
1 12 45 51 76 93 72 20 -2 38 -8 40 -15z m4791 -720 c3 -17 -6 -27 -37 -43
-28 -14 -48 -34 -62 -63 -12 -23 -28 -50 -37 -59 -22 -25 -64 -22 -91 6 -21
22 -22 26 -8 52 50 95 225 175 235 107z m-6064 -55 c16 -23 22 -68 9 -68 -5 0
-16 14 -25 30 -24 42 -47 48 -69 19 -9 -13 -19 -34 -22 -46 -4 -24 16 -73 36
-85 8 -5 5 -18 -10 -45 -27 -48 -50 -54 -58 -16 -13 59 -23 73 -55 73 -24 0
-30 4 -30 23 0 12 -3 33 -7 45 -5 22 -3 23 24 21 23 -3 38 4 64 31 28 29 42
35 81 38 39 2 49 -2 62 -20z m5593 -38 c24 0 26 -41 4 -64 -18 -17 -32 -21
-83 -19 -81 3 -97 9 -104 40 -12 45 11 51 183 43z m-1798 -319 c35 -32 42 -80
15 -101 -8 -8 -34 -14 -56 -14 -41 -1 -42 0 -57 46 -28 92 30 133 98 69z
m-189 -16 c10 -12 11 -27 1 -68 -6 -29 -10 -61 -9 -71 5 -35 -21 -28 -47 13
-14 23 -32 41 -41 41 -16 0 -44 -56 -44 -88 0 -43 -82 -74 -112 -44 -20 20
-12 79 17 128 41 70 59 84 108 84 23 0 49 5 57 10 22 15 56 12 70 -5z m-486
-181 c17 -45 3 -90 -35 -109 -59 -31 -105 -17 -119 36 -15 55 -1 77 53 82 88
8 95 7 101 -9z m-1983 -356 c2 -15 2 -12 -23 -113 -19 -74 -57 -145 -78 -145
-4 0 -8 24 -8 53 0 28 -9 78 -20 110 -12 32 -18 65 -15 73 6 16 29 19 38 4 10
-17 51 -11 70 10 21 23 34 26 36 8z m809 -414 c19 -99 18 -107 -12 -121 -45
-22 -58 -9 -57 60 1 34 -2 78 -6 98 -5 27 -2 44 11 64 l18 27 17 -35 c10 -19
23 -61 29 -93z m227 85 c18 -34 16 -104 -2 -119 -15 -12 -35 -4 -58 25 -5 6
-13 3 -20 -9 -7 -11 -21 -28 -31 -39 -18 -19 -19 -19 -33 -2 -14 20 -17 83 -6
124 8 30 75 61 112 52 14 -4 32 -18 38 -32z m-3275 -114 c-14 -78 -13 -87 3
-111 25 -39 13 -56 -34 -48 -31 5 -45 2 -70 -17 -45 -33 -61 -14 -36 41 17 38
17 43 2 76 -29 60 -17 79 42 68 16 -4 37 -1 48 5 26 16 49 9 45 -14z m4748
-65 c27 -27 25 -46 -7 -67 -16 -9 -41 -27 -56 -40 -38 -31 -127 -34 -127 -4 0
10 -7 25 -16 32 -15 12 -14 15 6 31 12 10 30 18 39 18 9 1 41 12 71 25 67 30
65 30 90 5z m-3328 -138 c7 -10 39 -31 72 -47 l58 -29 22 27 c22 27 40 34 50
19 7 -12 -52 -204 -72 -231 -31 -41 -42 -38 -42 13 0 45 -19 106 -41 132 -19
23 -39 4 -39 -36 0 -79 -33 -110 -116 -110 -53 0 -77 31 -72 92 5 44 11 54 67
107 33 33 61 64 61 70 0 18 38 13 52 -7z m2630 -19 c28 -25 25 -107 -6 -138
-31 -30 -70 -41 -102 -26 -31 14 -30 28 6 103 40 82 64 96 102 61z m-775 -96
c50 -42 64 -46 103 -31 21 8 83 15 158 17 l122 3 0 -33 c0 -56 -25 -103 -54
-103 -15 0 -30 8 -36 20 -6 11 -20 24 -31 31 -29 15 -94 -28 -102 -69 -8 -37
-29 -45 -78 -31 -37 12 -41 10 -100 -29 -36 -25 -74 -42 -90 -42 -16 0 -51 -9
-79 -20 -98 -39 -150 -20 -150 54 0 46 12 66 88 153 44 51 63 64 115 81 80 27
99 27 134 -1z m-441 -130 l27 -24 -17 -45 c-17 -43 -17 -48 -1 -82 20 -41 14
-66 -13 -66 -28 0 -48 27 -71 97 -26 79 -26 84 4 117 30 32 37 32 71 3z m-197
-102 c2 -11 14 -33 27 -51 31 -40 30 -68 -3 -94 -35 -28 -56 -22 -64 18 -4 18
-14 41 -23 51 -23 26 -20 67 7 86 28 19 51 16 56 -10z m663 -372 c24 -21 23
-26 -10 -65 -16 -18 -35 -46 -43 -63 -12 -25 -22 -31 -59 -36 -25 -4 -67 -18
-94 -33 -50 -26 -82 -32 -102 -18 -35 23 -48 127 -17 139 10 4 21 0 27 -11 29
-48 33 -51 50 -37 9 7 16 23 16 36 0 27 26 51 65 59 17 4 44 15 60 26 37 24
82 26 107 3z m-598 -145 c7 -13 17 -46 20 -74 6 -45 4 -53 -19 -74 -20 -19
-37 -24 -78 -25 -51 0 -52 0 -55 32 -2 18 3 42 11 55 8 13 18 36 22 53 9 42
23 55 56 55 19 0 33 -8 43 -22z"/>
<path d="M4060 7276 c-305 -57 -548 -289 -654 -626 -125 -394 29 -707 368
-752 107 -15 235 -1 345 37 41 14 78 25 82 25 4 0 26 -16 49 -35 49 -41 151
-102 183 -110 19 -5 30 5 71 64 26 39 49 71 51 71 2 0 1 -9 -2 -20 -5 -19 0
-20 111 -20 l116 0 34 53 c18 28 73 116 121 195 48 78 92 142 98 142 49 2 501
-1 503 -3 1 -1 9 -60 18 -132 9 -71 22 -158 27 -192 l11 -63 119 0 c115 0 119
1 119 22 0 18 -29 204 -120 773 -11 66 -33 208 -50 315 -17 107 -33 208 -36
223 l-6 28 -110 -3 -110 -3 -279 -440 c-154 -242 -321 -505 -371 -585 -51 -80
-111 -175 -134 -212 l-43 -67 -53 28 c-29 15 -72 40 -95 55 l-43 29 60 63
c163 175 257 393 267 624 9 181 -27 291 -126 391 -120 119 -308 164 -521 125z
m260 -218 c146 -66 194 -230 135 -464 -34 -133 -94 -251 -166 -327 l-58 -61
-23 20 c-32 29 -85 58 -151 82 l-57 22 -44 -78 c-25 -42 -45 -81 -45 -87 1 -5
22 -18 47 -28 26 -10 49 -21 52 -23 13 -13 -33 -24 -102 -24 -179 0 -297 100
-314 266 -18 168 65 418 181 551 54 61 154 127 244 159 90 32 220 29 301 -8z
m1134 -100 c3 -13 8 -54 11 -93 4 -38 15 -132 26 -208 11 -76 17 -143 14 -148
-7 -10 -355 -13 -355 -3 0 3 53 92 119 197 65 106 129 211 142 234 27 48 37
53 43 21z"/>
<path d="M4025 7025 c-170 -62 -277 -181 -345 -383 -82 -247 -47 -425 98 -489
30 -13 55 -23 57 -21 1 2 28 48 60 103 31 55 63 110 71 122 l14 22 72 -25 c40
-13 95 -38 121 -54 27 -17 52 -30 57 -30 15 0 89 100 121 162 53 104 81 221
82 333 0 141 -33 208 -128 258 -64 33 -191 34 -280 2z"/>
<path d="M5321 6704 c-50 -80 -91 -150 -91 -155 0 -5 52 -9 115 -9 63 0 115 3
115 8 0 23 -39 295 -43 298 -2 3 -45 -61 -96 -142z"/>
<path d="M6087 6598 c-92 -370 -167 -676 -167 -680 0 -5 49 -8 109 -8 l109 0
67 273 c37 149 72 280 77 290 8 15 25 17 134 17 141 0 175 -9 219 -61 35 -42
91 -161 160 -344 30 -77 57 -148 60 -157 6 -16 23 -18 142 -18 125 0 135 1
128 18 -3 9 -36 94 -72 187 -81 213 -122 299 -167 352 -20 22 -36 43 -36 46 0
3 15 9 33 12 59 13 174 74 225 120 95 85 152 210 152 330 0 142 -54 224 -179
269 -52 18 -86 20 -442 24 l-385 3 -167 -673z m831 462 c90 -20 127 -84 102
-175 -15 -54 -78 -128 -130 -155 -58 -30 -149 -40 -357 -40 -150 0 -193 3
-193 13 0 12 76 328 85 355 6 15 420 17 493 2z"/>
<path d="M6465 7029 c-5 -6 -75 -285 -75 -295 0 -11 400 3 441 15 42 13 114
72 134 112 15 29 20 95 9 124 -4 9 -18 22 -33 28 -27 11 -470 27 -476 16z"/>
<path d="M7427 6598 c-92 -370 -167 -676 -167 -680 0 -5 49 -8 110 -8 l109 0
10 38 c5 20 80 321 167 667 86 347 159 636 161 643 4 9 -22 12 -109 12 l-113
0 -168 -672z"/>
<path d="M6045 5128 c-3 -13 -79 -317 -168 -676 -90 -359 -161 -654 -159 -657
3 -3 135 -5 293 -5 337 0 442 14 566 75 79 39 201 146 265 233 150 203 232
541 183 750 -39 163 -158 266 -340 293 -33 5 -189 9 -347 9 l-288 0 -5 -22z
m646 -216 c128 -63 154 -242 72 -497 -41 -129 -89 -212 -168 -290 -105 -105
-143 -117 -402 -123 -112 -2 -203 -1 -203 2 0 4 52 214 115 467 63 253 115
462 115 465 0 3 96 4 213 2 197 -3 215 -5 258 -26z"/>
<path d="M6247 4849 c-28 -99 -197 -782 -197 -797 0 -12 25 -14 173 -10 163 4
175 6 235 33 77 35 153 113 204 211 43 83 53 120 35 131 -7 4 -23 32 -37 61
-26 58 -21 84 17 90 14 2 24 -6 33 -27 23 -57 33 -42 51 77 13 89 4 150 -33
210 -36 59 -62 65 -274 70 l-192 4 -15 -53z"/>
<path d="M7365 5138 c-2 -7 -76 -303 -165 -658 -88 -355 -163 -655 -166 -668
l-6 -22 513 2 514 3 22 85 c11 47 22 93 22 103 1 16 -24 17 -394 17 -261 0
-395 3 -395 10 0 6 21 94 46 195 l46 185 362 0 361 0 23 93 c12 50 22 95 22
100 0 4 -160 7 -355 7 -315 0 -355 2 -355 16 0 13 36 164 71 297 l10 37 384 0
384 0 10 38 c25 94 41 160 41 166 0 3 -223 6 -495 6 -388 0 -497 -3 -500 -12z"/>
<path d="M1778 5050 c-14 -55 -23 -102 -20 -105 3 -3 100 -5 215 -5 l209 0 -6
-22 c-26 -95 -276 -1103 -276 -1114 0 -11 22 -14 109 -14 l109 0 7 28 c3 15
68 272 143 572 l137 545 210 3 c115 1 213 6 218 11 4 4 16 43 27 87 10 43 22
87 25 97 7 16 -23 17 -538 17 l-544 0 -25 -100z"/>
<path d="M3020 5148 c0 -2 -76 -306 -169 -676 -116 -466 -164 -675 -156 -678
6 -3 56 -3 111 -2 l99 3 76 300 75 300 312 3 c172 1 312 -1 312 -6 0 -4 -33
-140 -73 -301 -51 -201 -70 -294 -62 -297 6 -3 56 -3 111 -2 l99 3 167 660
c91 363 167 668 167 678 1 15 -11 17 -109 17 -60 0 -110 -1 -110 -3 0 -27
-134 -523 -143 -529 -14 -9 -577 -11 -600 -2 -12 4 -3 50 49 257 35 139 64
258 64 265 0 9 -29 12 -110 12 -60 0 -110 -1 -110 -2z"/>
<path d="M4167 4483 c-92 -368 -167 -674 -167 -680 0 -10 108 -13 509 -13
l509 0 21 88 c12 48 24 95 27 105 5 16 -18 17 -396 17 l-400 0 7 28 c3 15 25
101 48 192 l41 165 362 3 362 2 5 23 c3 12 14 57 24 100 l18 77 -353 0 c-194
0 -355 4 -358 8 -2 4 14 83 37 175 l41 167 386 2 385 3 22 85 c12 47 22 93 23
103 0 16 -30 17 -493 17 l-494 0 -166 -667z"/>
</g>
</svg>
